<?xml version="1.0" encoding="utf-8"?>
<!-- Generator: Adobe Illustrator 15.0.0, SVG Export Plug-In . SVG Version: 6.00 Build 0)  -->
<!DOCTYPE svg PUBLIC "-//W3C//DTD SVG 1.1//EN" "http://www.w3.org/Graphics/SVG/1.1/DTD/svg11.dtd">
<svg version="1.1" id="Layer_1" xmlns="http://www.w3.org/2000/svg" xmlns:xlink="http://www.w3.org/1999/xlink" x="0px" y="0px"
	 width="729.037px" height="244.252px" viewBox="0 0 729.037 244.252" enable-background="new 0 0 729.037 244.252"
	 xml:space="preserve">
<g id="Layer_2" display="none">
	
		<image display="inline" overflow="visible" enable-background="new    " width="304" height="100" xlink:href="2335DBE1.png"  transform="matrix(2.4716 0 0 2.4716 -9.8811 4.882813e-004)">
	</image>
	<path display="inline" fill="#ED1C24" d="M205.082,163.207"/>
	<polyline display="inline" fill="#ED1C24" points="528.938,163.127 573.423,163.127 573.423,138.252 	"/>
	<path display="inline" fill="#ED1C24" d="M573.362,138.229c0.061-58.915-60.659-48.144-74.094-29.5v24.69
		c20.602-12.875,33.185,1.167,29.669,29.708"/>
</g>
<g id="Pfad">
	<path fill="#020202" d="M81.415,0c-0.167,87.743-0.167,163.082,123.667,163.207c-0.429-14.202-1.378-90.455-61.839-101.001
		C144.979,55.942,166.287,0,81.415,0z"/>
	<g id="Layer_3">
		<path d="M0,0c0,184.5-14.89,244.252,205.155,244.692v-71.676C105.578,173.019,71.703,142.752,71.703,0"/>
	</g>
</g>
<g id="Layer_4">
	<rect x="296.594" y="54.361" width="42.016" height="108.766"/>
	<rect x="296.594" y="173.019" width="42.016" height="39.547"/>
</g>
<g id="Layer_5">
	<rect x="449.844" y="96.393" width="39.547" height="66.734"/>
	<rect x="449.844" y="173.019" width="39.547" height="39.53"/>
	<rect x="368.266" y="96.393" width="44.594" height="66.734"/>
	<rect x="528.938" y="173.019" width="44.484" height="39.53"/>
	<path d="M415.287,173.019h-47.021c-0.123,35.982,38.188,56.317,71.604,29.566l0.104-27.104
		C438.016,177.752,424.578,186.938,415.287,173.019z"/>
	<path display="none" opacity="0.35" enable-background="new    " d="M528.876,163.127c3.809,0,44.547,0,44.547,0v-25.199"/>
	<path display="none" opacity="0.35" enable-background="new    " d="M528.876,163.127c3.516-28.542-9.067-42.583-29.67-29.708
		v-24.69c13.436-18.643,74.153-29.414,74.095,29.5"/>
	<g>
		<path fill="#181818" d="M106.806,132.344"/>
		<g>
			<path fill="#ED1C24" d="M106.403,132.792c0.592,0,2.099-0.896,0.805-0.896C106.616,131.896,105.109,132.792,106.403,132.792
				L106.403,132.792z"/>
		</g>
	</g>
	<path d="M573.423,163.127c-0.029-27.001,0.596-41.876-6.245-51.899c-15.979-23.413-49.611-21.692-67.972-2.499
		c-0.003,4.273,0,24.69,0,24.69s34.58-22,29.664,29.75"/>
</g>
<g id="Layer_6">
	<path d="M598.203,173.019c0,0,39.536,0,42,0c1.543,3.508,4.917,17.4,22.584,17.4c13.583,0,20.167-11.167,24.286-17.4h41.963
		c-5.333,25.483-25.458,41.983-66.958,41.983C615.704,215.002,600.204,191.336,598.203,173.019"/>
	<path d="M595.703,163.127c14.031,0,133.333,0,133.333,0c0.001-42.708-11.801-66.734-65.417-66.734
		C613.902,96.393,595.703,120.418,595.703,163.127"/>
</g>
<g id="Layer_7">
	<path fill="#FCFCFC" d="M640.036,145.419h44.667c0-17.333-7.667-26.977-22.334-26.977
		C650.12,118.442,640.036,127.252,640.036,145.419z"/>
</g>
</svg>
