<svg xmlns="http://www.w3.org/2000/svg" xmlns:xlink="http://www.w3.org/1999/xlink" version="1.1" x="0px" y="0px" viewBox="0 0 512 640" enable-background="new 0 0 512 512" xml:space="preserve"><g><g><path d="M191.9,293.6c-6.6-11.2-10.7-24.1-10.7-38c0-35,24-64.1,56.4-72.5V68.5c-95,9.4-169.2,89.6-169.2,187    c0,45.2,15.9,86.6,42.5,119L191.9,293.6z"/></g><g><path d="M275.3,183c26.4,6.8,47,27.4,53.8,53.8h114.5C434.7,148,364.1,77.3,275.3,68.5V183z"/></g><g><path d="M329,274.4c-8.4,32.3-37.5,56.3-72.5,56.3c-13.9,0-26.8-4-37.9-10.6l-81,81c32.4,26.5,73.8,42.4,118.9,42.4    c97.4,0,177.5-74.1,187-169.1H329z"/></g></g><text x="0" y="527" fill="#000000" font-size="5px" font-weight="bold" font-family="'Helvetica Neue', Helvetica, Arial-Unicode, Arial, Sans-serif">Created by Creative Stall</text><text x="0" y="532" fill="#000000" font-size="5px" font-weight="bold" font-family="'Helvetica Neue', Helvetica, Arial-Unicode, Arial, Sans-serif">from the Noun Project</text></svg>