<svg xmlns="http://www.w3.org/2000/svg" xmlns:xlink="http://www.w3.org/1999/xlink" version="1.1" id="Layer_1" x="0px" y="0px" viewBox="0 0 100 100" enable-background="new 0 0 100 100" xml:space="preserve" height="100px" width="100px">
<path d="M28.4,5L28.4,5H6.8C5.806,5,5,5.806,5,6.8v0v21.524h0.004C5.003,28.349,5,28.374,5,28.4c0,0.994,0.806,1.8,1.8,1.8  s1.8-0.806,1.8-1.8c0-0.026-0.003-0.051-0.004-0.076H8.6V8.6h19.8l0,0c0.994,0,1.8-0.806,1.8-1.8C30.2,5.806,29.394,5,28.4,5z"/>
<path d="M95,28.4L95,28.4V6.8C95,5.806,94.194,5,93.2,5h0H71.676v0.004C71.651,5.003,71.626,5,71.6,5c-0.994,0-1.8,0.806-1.8,1.8  s0.806,1.8,1.8,1.8c0.026,0,0.051-0.003,0.076-0.004V8.6H91.4v19.8c0,0,0,0,0,0c0,0.994,0.806,1.8,1.8,1.8  C94.194,30.2,95,29.394,95,28.4z"/>
<path d="M71.6,95L71.6,95h21.6c0.994,0,1.8-0.806,1.8-1.8v0V71.676h-0.004C94.997,71.651,95,71.626,95,71.6  c0-0.994-0.806-1.8-1.8-1.8c-0.994,0-1.8,0.806-1.8,1.8c0,0.026,0.003,0.051,0.004,0.076H91.4V91.4H71.6c0,0,0,0,0,0  c-0.994,0-1.8,0.806-1.8,1.8C69.8,94.194,70.606,95,71.6,95z"/>
<path d="M5,71.6L5,71.6v21.6C5,94.194,5.806,95,6.8,95h0h21.524v-0.004C28.349,94.997,28.374,95,28.4,95c0.994,0,1.8-0.806,1.8-1.8  c0-0.994-0.806-1.8-1.8-1.8c-0.026,0-0.051,0.003-0.076,0.004V91.4H8.6V71.6c0,0,0,0,0,0c0-0.994-0.806-1.8-1.8-1.8  C5.806,69.8,5,70.606,5,71.6z"/>
<path d="M60.8,48.2h-9v-9c0-0.994-0.806-1.8-1.8-1.8c-0.994,0-1.8,0.806-1.8,1.8v9h-9c-0.994,0-1.8,0.806-1.8,1.8  c0,0.994,0.806,1.8,1.8,1.8h9v9c0,0.994,0.806,1.8,1.8,1.8c0.994,0,1.8-0.806,1.8-1.8v-9h9c0.994,0,1.8-0.806,1.8-1.8  C62.6,49.006,61.794,48.2,60.8,48.2z"/>
</svg>